<?xml version="1.0" encoding="UTF-8" standalone="no"?>
<!DOCTYPE svg PUBLIC "-//W3C//DTD SVG 1.1//EN" "http://www.w3.org/Graphics/SVG/1.1/DTD/svg11.dtd">
<svg version="1.1" xmlns="http://www.w3.org/2000/svg" xmlns:xlink="http://www.w3.org/1999/xlink" preserveAspectRatio="xMidYMid meet" viewBox="0 0 640 640" width="640" height="640"><defs><path d="M-19.67 12.46L594.22 12.46L594.22 361.08L-19.67 361.08L-19.67 12.46Z" id="c18t4uWEHc"></path><path d="M113.66 270.69C113.66 291.77 96.55 308.89 75.47 308.89C54.39 308.89 37.27 291.77 37.27 270.69C37.27 249.61 54.39 232.5 75.47 232.5C96.55 232.5 113.66 249.61 113.66 270.69Z" id="bVCQL6RXA"></path><path d="M417.55 47.19C417.55 56 410.3 63.16 401.37 63.16C392.44 63.16 385.19 56 385.19 47.19C385.19 38.37 392.44 31.21 401.37 31.21C410.3 31.21 417.55 38.37 417.55 47.19Z" id="c24wLFzcqO"></path><path d="M562 284.69C562 324.16 529.63 356.21 489.77 356.21C449.91 356.21 417.55 324.16 417.55 284.69C417.55 245.21 449.91 213.16 489.77 213.16C529.63 213.16 562 245.21 562 284.69Z" id="aINv8ePKY"></path></defs><g><g><g><use xlink:href="#c18t4uWEHc" opacity="1" fill="#000000" fill-opacity="1"></use></g><g><g><filter id="shadow5563461" x="13.27" y="208.5" width="128.39" height="126.39" filterUnits="userSpaceOnUse" primitiveUnits="userSpaceOnUse"><feFlood></feFlood><feComposite in2="SourceAlpha" operator="in"></feComposite><feGaussianBlur stdDeviation="2"></feGaussianBlur><feOffset dx="4" dy="2" result="afterOffset"></feOffset><feFlood flood-color="#20290b" flood-opacity="0.5"></feFlood><feComposite in2="afterOffset" operator="in"></feComposite><feMorphology operator="dilate" radius="7"></feMorphology><feComposite in2="SourceAlpha" operator="out"></feComposite></filter><path d="M113.66 270.69C113.66 291.77 96.55 308.89 75.47 308.89C54.39 308.89 37.27 291.77 37.27 270.69C37.27 249.61 54.39 232.5 75.47 232.5C96.55 232.5 113.66 249.61 113.66 270.69Z" id="co2fEzEVX" fill="white" fill-opacity="1" filter="url(#shadow5563461)"></path></g><use xlink:href="#bVCQL6RXA" opacity="1" fill="#ffffff" fill-opacity="1"></use><g><use xlink:href="#bVCQL6RXA" opacity="1" fill-opacity="0" stroke="#b32f2f" stroke-width="1" stroke-opacity="1"></use></g><g><filter id="shadow5230740" x="28.27" y="223.5" width="95.39" height="95.39" filterUnits="userSpaceOnUse" primitiveUnits="userSpaceOnUse"><feFlood></feFlood><feComposite in2="SourceAlpha" operator="out"></feComposite><feGaussianBlur stdDeviation="1"></feGaussianBlur><feOffset dx="1" dy="1" result="afterOffset"></feOffset><feFlood flood-color="#ffffff" flood-opacity="0.8"></feFlood><feComposite in2="afterOffset" operator="in"></feComposite><feMorphology operator="dilate" radius="1"></feMorphology><feComposite in2="SourceAlpha" operator="in"></feComposite></filter><path d="M113.66 270.69C113.66 291.77 96.55 308.89 75.47 308.89C54.39 308.89 37.27 291.77 37.27 270.69C37.27 249.61 54.39 232.5 75.47 232.5C96.55 232.5 113.66 249.61 113.66 270.69Z" id="a15KZoS3t9" fill="white" fill-opacity="1" filter="url(#shadow5230740)"></path></g></g><g><g><filter id="shadow15239634" x="361.19" y="7.21" width="84.36" height="81.94" filterUnits="userSpaceOnUse" primitiveUnits="userSpaceOnUse"><feFlood></feFlood><feComposite in2="SourceAlpha" operator="in"></feComposite><feGaussianBlur stdDeviation="2"></feGaussianBlur><feOffset dx="4" dy="2" result="afterOffset"></feOffset><feFlood flood-color="#20290b" flood-opacity="0.5"></feFlood><feComposite in2="afterOffset" operator="in"></feComposite><feMorphology operator="dilate" radius="7"></feMorphology><feComposite in2="SourceAlpha" operator="out"></feComposite></filter><path d="M417.55 47.19C417.55 56 410.3 63.16 401.37 63.16C392.44 63.16 385.19 56 385.19 47.19C385.19 38.37 392.44 31.21 401.37 31.21C410.3 31.21 417.55 38.37 417.55 47.19Z" id="e54QveY3d5" fill="white" fill-opacity="1" filter="url(#shadow15239634)"></path></g><use xlink:href="#c24wLFzcqO" opacity="1" fill="#ffffff" fill-opacity="1"></use><g><use xlink:href="#c24wLFzcqO" opacity="1" fill-opacity="0" stroke="#b32f2f" stroke-width="1" stroke-opacity="1"></use></g><g><filter id="shadow7207789" x="376.19" y="22.21" width="51.36" height="50.94" filterUnits="userSpaceOnUse" primitiveUnits="userSpaceOnUse"><feFlood></feFlood><feComposite in2="SourceAlpha" operator="out"></feComposite><feGaussianBlur stdDeviation="1"></feGaussianBlur><feOffset dx="1" dy="1" result="afterOffset"></feOffset><feFlood flood-color="#ffffff" flood-opacity="0.8"></feFlood><feComposite in2="afterOffset" operator="in"></feComposite><feMorphology operator="dilate" radius="1"></feMorphology><feComposite in2="SourceAlpha" operator="in"></feComposite></filter><path d="M417.55 47.19C417.55 56 410.3 63.16 401.37 63.16C392.44 63.16 385.19 56 385.19 47.19C385.19 38.37 392.44 31.21 401.37 31.21C410.3 31.21 417.55 38.37 417.55 47.19Z" id="airFA6C71" fill="white" fill-opacity="1" filter="url(#shadow7207789)"></path></g></g><g><g><filter id="shadow10158542" x="393.55" y="189.16" width="196.44" height="193.06" filterUnits="userSpaceOnUse" primitiveUnits="userSpaceOnUse"><feFlood></feFlood><feComposite in2="SourceAlpha" operator="in"></feComposite><feGaussianBlur stdDeviation="2"></feGaussianBlur><feOffset dx="4" dy="2" result="afterOffset"></feOffset><feFlood flood-color="#20290b" flood-opacity="0.5"></feFlood><feComposite in2="afterOffset" operator="in"></feComposite><feMorphology operator="dilate" radius="7"></feMorphology><feComposite in2="SourceAlpha" operator="out"></feComposite></filter><path d="M562 284.69C562 324.16 529.63 356.21 489.77 356.21C449.91 356.21 417.55 324.16 417.55 284.69C417.55 245.21 449.91 213.16 489.77 213.16C529.63 213.16 562 245.21 562 284.69Z" id="a5rzeengBN" fill="white" fill-opacity="1" filter="url(#shadow10158542)"></path></g><use xlink:href="#aINv8ePKY" opacity="1" fill="#ffffff" fill-opacity="1"></use><g><use xlink:href="#aINv8ePKY" opacity="1" fill-opacity="0" stroke="#b32f2f" stroke-width="1" stroke-opacity="1"></use></g><g><filter id="shadow14005663" x="408.55" y="204.16" width="163.44" height="162.06" filterUnits="userSpaceOnUse" primitiveUnits="userSpaceOnUse"><feFlood></feFlood><feComposite in2="SourceAlpha" operator="out"></feComposite><feGaussianBlur stdDeviation="1"></feGaussianBlur><feOffset dx="1" dy="1" result="afterOffset"></feOffset><feFlood flood-color="#ffffff" flood-opacity="0.8"></feFlood><feComposite in2="afterOffset" operator="in"></feComposite><feMorphology operator="dilate" radius="1"></feMorphology><feComposite in2="SourceAlpha" operator="in"></feComposite></filter><path d="M562 284.69C562 324.16 529.63 356.21 489.77 356.21C449.91 356.21 417.55 324.16 417.55 284.69C417.55 245.21 449.91 213.16 489.77 213.16C529.63 213.16 562 245.21 562 284.69Z" id="d3sBEl3HOd" fill="white" fill-opacity="1" filter="url(#shadow14005663)"></path></g></g></g></g></svg>